ScreenboxMDL2Assets.ufo
<glyph name="uniE62E" format="2">
  <advance width="2048"/>
  <unicode hex="E62E"/>
  <outline>
    <contour>
      <point x="576" y="1792" type="line"/>
      <point x="768" y="1792" type="line"/>
      <point x="768" y="256" type="line"/>
      <point x="576" y="256" type="line"/>
    </contour>
    <contour>
      <point x="1280" y="1792" type="line"/>
      <point x="1472" y="1792" type="line"/>
      <point x="1472" y="256" type="line"/>
      <point x="1280" y="256" type="line"/>
    </contour>
  </outline>
</glyph>
<glyph name="uniE74D" format="2">
  <advance width="2048"/>
  <unicode hex="E74D"/>
  <outline>
    <contour>
      <point x="768" y="1408" type="line"/>
      <point x="768" y="384" type="line"/>
      <point x="640" y="384" type="line"/>
      <point x="640" y="1408" type="line"/>
    </contour>
    <contour>
      <point x="1024" y="1408" type="line"/>
      <point x="1024" y="384" type="line"/>
      <point x="896" y="384" type="line"/>
      <point x="896" y="1408" type="line"/>
    </contour>
    <contour>
      <point x="1280" y="1408" type="line"/>
      <point x="1280" y="384" type="line"/>
      <point x="1152" y="384" type="line"/>
      <point x="1152" y="1408" type="line"/>
    </contour>
    <contour>
      <point x="768" y="2048" type="qcurve" smooth="yes"/>
      <point x="1152" y="2048" type="line" smooth="yes"/>
      <point x="1205" y="2048"/>
      <point x="1280" y="1973"/>
      <point x="1280" y="1920" type="qcurve" smooth="yes"/>
      <point x="1280" y="1792" type="line"/>
      <point x="1792" y="1792" type="line"/>
      <point x="1792" y="1664" type="line"/>
      <point x="1659" y="1664" type="line"/>
      <point x="1545" y="177" type="line" smooth="yes"/>
      <point x="1539" y="102"/>
      <point x="1428" y="0"/>
      <point x="1353" y="0" type="qcurve" smooth="yes"/>
      <point x="567" y="0" type="line" smooth="yes"/>
      <point x="492" y="0"/>
      <point x="381" y="102"/>
      <point x="375" y="177" type="qcurve" smooth="yes"/>
      <point x="261" y="1664" type="line"/>
      <point x="128" y="1664" type="line"/>
      <point x="128" y="1792" type="line"/>
      <point x="640" y="1792" type="line"/>
      <point x="640" y="1920" type="line" smooth="yes"/>
      <point x="640" y="1973"/>
      <point x="715" y="2048"/>
    </contour>
    <contour>
      <point x="1152" y="1792" type="line"/>
      <point x="1152" y="1920" type="line"/>
      <point x="768" y="1920" type="line"/>
      <point x="768" y="1792" type="line"/>
    </contour>
    <contour>
      <point x="503" y="187" type="line" smooth="yes"/>
      <point x="505" y="162"/>
      <point x="542" y="128"/>
      <point x="567" y="128" type="qcurve" smooth="yes"/>
      <point x="1353" y="128" type="line" smooth="yes"/>
      <point x="1378" y="128"/>
      <point x="1415" y="162"/>
      <point x="1417" y="187" type="qcurve" smooth="yes"/>
      <point x="1531" y="1664" type="line"/>
      <point x="389" y="1664" type="line"/>
    </contour>
  </outline>
</glyph>
<glyph name="uniE768" format="2">
  <advance width="2048"/>
  <unicode hex="E768"/>
  <outline>
    <contour>
      <point x="512" y="128" type="line"/>
      <point x="512" y="1920" type="line"/>
      <point x="1792" y="1024" type="line"/>
    </contour>
    <contour>
      <point x="640" y="1674" type="line"/>
      <point x="640" y="374" type="line"/>
      <point x="1569" y="1024" type="line"/>
    </contour>
  </outline>
</glyph>
<glyph name="uniE769" format="2">
  <advance width="2048"/>
  <unicode hex="E769"/>
  <outline>
    <contour>
      <point x="640" y="1792" type="line"/>
      <point x="768" y="1792" type="line"/>
      <point x="768" y="256" type="line"/>
      <point x="640" y="256" type="line"/>
    </contour>
    <contour>
      <point x="1280" y="1792" type="line"/>
      <point x="1408" y="1792" type="line"/>
      <point x="1408" y="256" type="line"/>
      <point x="1280" y="256" type="line"/>
    </contour>
  </outline>
</glyph>
<glyph name="uniE795" format="2">
  <advance width="2048"/>
  <unicode hex="E795"/>
  <outline>
    <contour>
      <point x="768" y="256" type="qcurve" smooth="yes"/>
      <point x="768" y="640" type="line"/>
      <point x="512" y="640" type="line" smooth="yes"/>
      <point x="459" y="640"/>
      <point x="384" y="715"/>
      <point x="384" y="768" type="qcurve" smooth="yes"/>
      <point x="384" y="1792" type="line" smooth="yes"/>
      <point x="384" y="1898"/>
      <point x="534" y="2048"/>
      <point x="640" y="2048" type="qcurve" smooth="yes"/>
      <point x="1600" y="2048" type="line" smooth="yes"/>
      <point x="1680" y="2048"/>
      <point x="1792" y="1936"/>
      <point x="1792" y="1856" type="qcurve" smooth="yes"/>
      <point x="1792" y="1792" type="line"/>
      <point x="1728" y="1792" type="line" smooth="yes"/>
      <point x="1701" y="1792"/>
      <point x="1664" y="1755"/>
      <point x="1664" y="1728" type="qcurve" smooth="yes"/>
      <point x="1664" y="768" type="line" smooth="yes"/>
      <point x="1664" y="715"/>
      <point x="1589" y="640"/>
      <point x="1536" y="640" type="qcurve" smooth="yes"/>
      <point x="1280" y="640" type="line"/>
      <point x="1280" y="256" type="line" smooth="yes"/>
      <point x="1280" y="150"/>
      <point x="1130" y="0"/>
      <point x="918" y="0"/>
      <point x="768" y="150"/>
    </contour>
    <contour>
      <point x="512" y="1792" type="qcurve" smooth="yes"/>
      <point x="512" y="1152" type="line"/>
      <point x="1536" y="1152" type="line"/>
      <point x="1536" y="1728" type="line" smooth="yes"/>
      <point x="1536" y="1784"/>
      <point x="1596" y="1877"/>
      <point x="1645" y="1901" type="qcurve"/>
      <point x="1626" y="1920"/>
      <point x="1600" y="1920" type="qcurve" smooth="yes"/>
      <point x="640" y="1920" type="line" smooth="yes"/>
      <point x="587" y="1920"/>
      <point x="512" y="1845"/>
    </contour>
    <contour>
      <point x="1536" y="768" type="line"/>
      <point x="1536" y="1024" type="line"/>
      <point x="512" y="1024" type="line"/>
      <point x="512" y="768" type="line"/>
      <point x="896" y="768" type="line"/>
      <point x="896" y="256" type="line" smooth="yes"/>
      <point x="896" y="203"/>
      <point x="971" y="128"/>
      <point x="1077" y="128"/>
      <point x="1152" y="203"/>
      <point x="1152" y="256" type="qcurve" smooth="yes"/>
      <point x="1152" y="768" type="line"/>
    </contour>
  </outline>
</glyph>
<glyph name="uniE838" format="2">
  <advance width="2048"/>
  <unicode hex="E838"/>
  <outline>
    <contour>
      <point x="256" y="2048" type="line"/>
      <point x="1536" y="2048" type="line" smooth="yes"/>
      <point x="1589" y="2048"/>
      <point x="1664" y="1973"/>
      <point x="1664" y="1920" type="qcurve" smooth="yes"/>
      <point x="1664" y="990" type="line" smooth="yes"/>
      <point x="1664" y="936"/>
      <point x="1698" y="892" type="qcurve" smooth="yes"/>
      <point x="1731" y="849" type="line" smooth="yes"/>
      <point x="1792" y="771"/>
      <point x="1792" y="672" type="qcurve" smooth="yes"/>
      <point x="1792" y="384" type="line" smooth="yes"/>
      <point x="1792" y="331"/>
      <point x="1717" y="256"/>
      <point x="1664" y="256" type="qcurve" smooth="yes"/>
      <point x="768" y="256" type="line"/>
      <point x="768" y="128" type="line" smooth="yes"/>
      <point x="768" y="72"/>
      <point x="691" y="0"/>
      <point x="640" y="0" type="qcurve" smooth="yes"/>
      <point x="586" y="-0"/>
      <point x="549" y="37" type="qcurve" smooth="yes"/>
      <point x="256" y="331" type="line"/>
    </contour>
    <contour>
      <point x="1664" y="384" type="line"/>
      <point x="1664" y="672" type="line" smooth="yes"/>
      <point x="1664" y="726"/>
      <point x="1630" y="770" type="qcurve" smooth="yes"/>
      <point x="1597" y="813" type="line" smooth="yes"/>
      <point x="1536" y="891"/>
      <point x="1536" y="990" type="qcurve" smooth="yes"/>
      <point x="1536" y="1920" type="line"/>
      <point x="475" y="1920" type="line"/>
      <point x="859" y="1536" type="line" smooth="yes"/>
      <point x="896" y="1499"/>
      <point x="896" y="1445" type="qcurve" smooth="yes"/>
      <point x="896" y="800" type="line" smooth="yes"/>
      <point x="896" y="701"/>
      <point x="835" y="623" type="qcurve" smooth="yes"/>
      <point x="802" y="580" type="line" smooth="yes"/>
      <point x="768" y="536"/>
      <point x="768" y="482" type="qcurve" smooth="yes"/>
      <point x="768" y="384" type="line"/>
    </contour>
    <contour>
      <point x="384" y="1829" type="line"/>
      <point x="384" y="385" type="line"/>
      <point x="640" y="128" type="line"/>
      <point x="640" y="482" type="line" smooth="yes"/>
      <point x="640" y="581"/>
      <point x="701" y="659" type="qcurve" smooth="yes"/>
      <point x="734" y="702" type="line" smooth="yes"/>
      <point x="768" y="746"/>
      <point x="768" y="800" type="qcurve" smooth="yes"/>
      <point x="768" y="1445" type="line"/>
    </contour>
  </outline>
</glyph>
<glyph name="uniE8B1" format="2">
  <advance width="2048"/>
  <unicode hex="E8B1"/>
  <outline>
    <contour>
      <point x="1618" y="1682" type="line"/>
      <point x="1709" y="1773" type="line"/>
      <point x="2010" y="1472" type="line"/>
      <point x="1709" y="1171" type="line"/>
      <point x="1618" y="1262" type="line"/>
      <point x="1764" y="1408" type="line"/>
      <point x="1688" y="1407"/>
      <point x="1509" y="1370"/>
      <point x="1302" y="1293"/>
      <point x="1091" y="1145"/>
      <point x="1009" y="1047" type="qcurve" smooth="yes"/>
      <point x="727" y="708"/>
      <point x="386" y="581" type="qcurve" smooth="yes"/>
      <point x="200" y="512"/>
      <point x="0" y="512" type="qcurve"/>
      <point x="0" y="640" type="line"/>
      <point x="177" y="640"/>
      <point x="341" y="701" type="qcurve" smooth="yes"/>
      <point x="651" y="816"/>
      <point x="911" y="1129" type="qcurve" smooth="yes"/>
      <point x="986" y="1219"/>
      <point x="1174" y="1364"/>
      <point x="1353" y="1452"/>
      <point x="1543" y="1512"/>
      <point x="1696" y="1535"/>
      <point x="1764" y="1536" type="qcurve"/>
    </contour>
    <contour>
      <point x="386" y="1467" type="qcurve" smooth="yes"/>
      <point x="605" y="1386"/>
      <point x="804" y="1212" type="qcurve"/>
      <point x="760" y="1159"/>
      <point x="719" y="1117" type="qcurve"/>
      <point x="539" y="1273"/>
      <point x="341" y="1347" type="qcurve" smooth="yes"/>
      <point x="177" y="1408"/>
      <point x="0" y="1408" type="qcurve"/>
      <point x="0" y="1536" type="line"/>
      <point x="200" y="1536"/>
    </contour>
    <contour>
      <point x="1764" y="512" type="line"/>
      <point x="1687" y="513"/>
      <point x="1509" y="545"/>
      <point x="1302" y="614"/>
      <point x="1084" y="744"/>
      <point x="994" y="830" type="qcurve"/>
      <point x="1039" y="876"/>
      <point x="1081" y="924" type="qcurve"/>
      <point x="1161" y="847"/>
      <point x="1354" y="732"/>
      <point x="1538" y="670"/>
      <point x="1696" y="641"/>
      <point x="1764" y="640" type="qcurve"/>
      <point x="1618" y="786" type="line"/>
      <point x="1709" y="877" type="line"/>
      <point x="2010" y="576" type="line"/>
      <point x="1709" y="275" type="line"/>
      <point x="1618" y="366" type="line"/>
    </contour>
  </outline>
</glyph>
<glyph name="uniE8B2" format="2">
  <advance width="2048"/>
  <unicode hex="E8B2"/>
  <outline>
    <contour>
      <point x="384" y="1408" type="line"/>
      <point x="384" y="1280" type="line"/>
      <point x="256" y="1280" type="line"/>
      <point x="256" y="1408" type="line"/>
    </contour>
    <contour>
      <point x="256" y="1152" type="line"/>
      <point x="384" y="1152" type="line"/>
      <point x="384" y="1024" type="line"/>
      <point x="256" y="1024" type="line"/>
    </contour>
    <contour>
      <point x="384" y="896" type="line"/>
      <point x="384" y="768" type="line"/>
      <point x="256" y="768" type="line"/>
      <point x="256" y="896" type="line"/>
    </contour>
    <contour>
      <point x="1664" y="1408" type="line"/>
      <point x="1792" y="1408" type="line"/>
      <point x="1792" y="1280" type="line"/>
      <point x="1664" y="1280" type="line"/>
    </contour>
    <contour>
      <point x="1792" y="1152" type="line"/>
      <point x="1792" y="1024" type="line"/>
      <point x="1664" y="1024" type="line"/>
      <point x="1664" y="1152" type="line"/>
    </contour>
    <contour>
      <point x="1664" y="896" type="line"/>
      <point x="1792" y="896" type="line"/>
      <point x="1792" y="768" type="line"/>
      <point x="1664" y="768" type="line"/>
    </contour>
    <contour>
      <point x="0" y="1792" type="line"/>
      <point x="2048" y="1792" type="line"/>
      <point x="2048" y="384" type="line"/>
      <point x="0" y="384" type="line"/>
    </contour>
    <contour>
      <point x="1664" y="1664" type="line"/>
      <point x="384" y="1664" type="line"/>
      <point x="384" y="1536" type="line"/>
      <point x="256" y="1536" type="line"/>
      <point x="256" y="1664" type="line"/>
      <point x="128" y="1664" type="line"/>
      <point x="128" y="512" type="line"/>
      <point x="256" y="512" type="line"/>
      <point x="256" y="640" type="line"/>
      <point x="384" y="640" type="line"/>
      <point x="384" y="512" type="line"/>
      <point x="1664" y="512" type="line"/>
      <point x="1664" y="640" type="line"/>
      <point x="1792" y="640" type="line"/>
      <point x="1792" y="512" type="line"/>
      <point x="1920" y="512" type="line"/>
      <point x="1920" y="1664" type="line"/>
      <point x="1792" y="1664" type="line"/>
      <point x="1792" y="1536" type="line"/>
      <point x="1664" y="1536" type="line"/>
    </contour>
  </outline>
</glyph>
<glyph name="uniE8D6" format="2">
  <advance width="2048"/>
  <unicode hex="E8D6"/>
  <outline>
    <contour>
      <point x="512" y="1920" type="line"/>
      <point x="640" y="1920" type="line"/>
      <point x="640" y="1819"/>
      <point x="712" y="1747" type="qcurve" smooth="yes"/>
      <point x="787" y="1672" type="line" smooth="yes"/>
      <point x="896" y="1563"/>
      <point x="896" y="1408" type="qcurve"/>
      <point x="768" y="1408" type="line"/>
      <point x="768" y="1509"/>
      <point x="696" y="1581" type="qcurve" smooth="yes"/>
      <point x="640" y="1637" type="line"/>
      <point x="640" y="864" type="line" smooth="yes"/>
      <point x="640" y="771"/>
      <point x="490" y="640"/>
      <point x="278" y="640"/>
      <point x="128" y="771"/>
      <point x="128" y="957"/>
      <point x="278" y="1088"/>
      <point x="384" y="1088" type="qcurve" smooth="yes"/>
      <point x="453" y="1088"/>
      <point x="512" y="1058" type="qcurve"/>
    </contour>
    <contour>
      <point x="512" y="897"/>
      <point x="444" y="960"/>
      <point x="324" y="960"/>
      <point x="256" y="897"/>
      <point x="256" y="831"/>
      <point x="324" y="768"/>
      <point x="444" y="768"/>
      <point x="512" y="831"/>
    </contour>
    <contour>
      <point x="1920" y="1506" type="line"/>
      <point x="1920" y="480" type="line" smooth="yes"/>
      <point x="1920" y="387"/>
      <point x="1770" y="256"/>
      <point x="1558" y="256"/>
      <point x="1408" y="387"/>
      <point x="1408" y="573"/>
      <point x="1558" y="704"/>
      <point x="1664" y="704" type="qcurve" smooth="yes"/>
      <point x="1733" y="704"/>
      <point x="1792" y="674" type="qcurve"/>
      <point x="1792" y="1342" type="line"/>
      <point x="1152" y="1182" type="line"/>
      <point x="1152" y="352" type="line" smooth="yes"/>
      <point x="1152" y="259"/>
      <point x="1002" y="128"/>
      <point x="790" y="128"/>
      <point x="640" y="259"/>
      <point x="640" y="445"/>
      <point x="790" y="576"/>
      <point x="896" y="576" type="qcurve" smooth="yes"/>
      <point x="965" y="576"/>
      <point x="1024" y="546" type="qcurve"/>
      <point x="1024" y="1282" type="line"/>
    </contour>
    <contour>
      <point x="1604" y="576"/>
      <point x="1536" y="513"/>
      <point x="1536" y="447"/>
      <point x="1604" y="384"/>
      <point x="1724" y="384"/>
      <point x="1792" y="447"/>
      <point x="1792" y="513"/>
      <point x="1724" y="576"/>
    </contour>
    <contour>
      <point x="836" y="448"/>
      <point x="768" y="385"/>
      <point x="768" y="319"/>
      <point x="836" y="256"/>
      <point x="956" y="256"/>
      <point x="1024" y="319"/>
      <point x="1024" y="385"/>
      <point x="956" y="448"/>
    </contour>
  </outline>
</glyph>
<glyph name="uniE8EE" format="2">
  <advance width="2048"/>
  <unicode hex="E8EE"/>
  <outline>
    <contour>
      <point x="1697" y="1510" type="qcurve"/>
      <point x="1788" y="1601" type="line"/>
      <point x="1910" y="1493"/>
      <point x="2048" y="1192"/>
      <point x="2048" y="1024" type="qcurve" smooth="yes"/>
      <point x="2048" y="869"/>
      <point x="1927" y="585"/>
      <point x="1724" y="379"/>
      <point x="1441" y="256"/>
      <point x="1286" y="256" type="qcurve" smooth="yes"/>
      <point x="636" y="256" type="line"/>
      <point x="798" y="94" type="line"/>
      <point x="707" y="3" type="line"/>
      <point x="390" y="320" type="line"/>
      <point x="707" y="637" type="line"/>
      <point x="798" y="546" type="line"/>
      <point x="636" y="384" type="line"/>
      <point x="1286" y="384" type="line" smooth="yes"/>
      <point x="1415" y="384"/>
      <point x="1650" y="486"/>
      <point x="1819" y="658"/>
      <point x="1920" y="895"/>
      <point x="1920" y="1024" type="qcurve" smooth="yes"/>
      <point x="1920" y="1167"/>
      <point x="1801" y="1420"/>
    </contour>
    <contour>
      <point x="1341" y="2045" type="line"/>
      <point x="1658" y="1728" type="line"/>
      <point x="1341" y="1411" type="line"/>
      <point x="1250" y="1502" type="line"/>
      <point x="1412" y="1664" type="line"/>
      <point x="762" y="1664" type="line" smooth="yes"/>
      <point x="633" y="1664"/>
      <point x="398" y="1562"/>
      <point x="229" y="1390"/>
      <point x="128" y="1153"/>
      <point x="128" y="1024" type="qcurve" smooth="yes"/>
      <point x="128" y="881"/>
      <point x="247" y="628"/>
      <point x="351" y="538" type="qcurve"/>
      <point x="260" y="447" type="line"/>
      <point x="138" y="555"/>
      <point x="0" y="856"/>
      <point x="0" y="1024" type="qcurve" smooth="yes"/>
      <point x="0" y="1179"/>
      <point x="121" y="1463"/>
      <point x="324" y="1669"/>
      <point x="607" y="1792"/>
      <point x="762" y="1792" type="qcurve" smooth="yes"/>
      <point x="1412" y="1792" type="line"/>
      <point x="1250" y="1954" type="line"/>
    </contour>
  </outline>
</glyph>
<glyph name="uniE8F4" format="2">
  <advance width="2048"/>
  <unicode hex="E8F4"/>
  <outline>
    <contour>
      <point x="384" y="2048" type="line"/>
      <point x="1792" y="2048" type="line" smooth="yes"/>
      <point x="1845" y="2048"/>
      <point x="1920" y="1973"/>
      <point x="1920" y="1920" type="qcurve" smooth="yes"/>
      <point x="1920" y="927" type="line" smooth="yes"/>
      <point x="1920" y="872"/>
      <point x="1954" y="828" type="qcurve" smooth="yes"/>
      <point x="1987" y="786" type="line" smooth="yes"/>
      <point x="2048" y="708"/>
      <point x="2048" y="609" type="qcurve" smooth="yes"/>
      <point x="2048" y="128" type="line" smooth="yes"/>
      <point x="2048" y="75"/>
      <point x="1973" y="0"/>
      <point x="1920" y="0" type="qcurve" smooth="yes"/>
      <point x="768" y="0" type="line"/>
      <point x="768" y="128" type="line"/>
      <point x="1664" y="128" type="line"/>
      <point x="1664" y="609" type="line" smooth="yes"/>
      <point x="1664" y="708"/>
      <point x="1725" y="786" type="qcurve" smooth="yes"/>
      <point x="1758" y="828" type="line" smooth="yes"/>
      <point x="1792" y="872"/>
      <point x="1792" y="927" type="qcurve" smooth="yes"/>
      <point x="1792" y="1920" type="line"/>
      <point x="512" y="1920" type="line"/>
      <point x="512" y="1152" type="line"/>
      <point x="384" y="1152" type="line"/>
    </contour>
    <contour>
      <point x="1920" y="609" type="line" smooth="yes"/>
      <point x="1920" y="664"/>
      <point x="1886" y="708" type="qcurve" smooth="yes"/>
      <point x="1856" y="746" type="line"/>
      <point x="1826" y="708" type="line" smooth="yes"/>
      <point x="1792" y="664"/>
      <point x="1792" y="609" type="qcurve" smooth="yes"/>
      <point x="1792" y="128" type="line"/>
      <point x="1920" y="128" type="line"/>
    </contour>
    <contour>
      <point x="384" y="896" type="line"/>
      <point x="512" y="896" type="line"/>
      <point x="512" y="512" type="line"/>
      <point x="896" y="512" type="line"/>
      <point x="896" y="384" type="line"/>
      <point x="512" y="384" type="line"/>
      <point x="512" y="0" type="line"/>
      <point x="384" y="0" type="line"/>
      <point x="384" y="384" type="line"/>
      <point x="0" y="384" type="line"/>
      <point x="0" y="512" type="line"/>
      <point x="384" y="512" type="line"/>
    </contour>
  </outline>
</glyph>
<glyph name="uniE93D" format="2">
  <advance width="2048"/>
  <unicode hex="E93D"/>
  <outline>
    <contour>
      <point x="1024" y="1920" type="line"/>
      <point x="1024" y="256" type="line"/>
      <point x="896" y="256" type="line"/>
      <point x="896" y="1920" type="line"/>
    </contour>
    <contour>
      <point x="512" y="1024" type="line"/>
      <point x="640" y="1024" type="line"/>
      <point x="640" y="256" type="line"/>
      <point x="512" y="256" type="line"/>
    </contour>
    <contour>
      <point x="128" y="640" type="line"/>
      <point x="256" y="640" type="line"/>
      <point x="256" y="256" type="line"/>
      <point x="128" y="256" type="line"/>
    </contour>
    <contour>
      <point x="1280" y="1408" type="line"/>
      <point x="1408" y="1408" type="line"/>
      <point x="1408" y="256" type="line"/>
      <point x="1280" y="256" type="line"/>
    </contour>
    <contour>
      <point x="1792" y="1024" type="line"/>
      <point x="1792" y="256" type="line"/>
      <point x="1664" y="256" type="line"/>
      <point x="1664" y="1024" type="line"/>
    </contour>
  </outline>
</glyph>
<glyph name="uniE93F" format="2">
  <advance width="2048"/>
  <unicode hex="E93F"/>
  <outline>
    <contour>
      <point x="0" y="1024" type="line"/>
      <point x="0" y="1792" type="line"/>
      <point x="538" y="1408" type="line"/>
    </contour>
    <contour>
      <point x="356" y="1408" type="line"/>
      <point x="106" y="1586" type="line"/>
      <point x="106" y="1230" type="line"/>
    </contour>
    <contour>
      <point x="641" y="1280" type="line"/>
      <point x="2048" y="1280" type="line"/>
      <point x="2048" y="1152" type="line"/>
      <point x="462" y="1152" type="line"/>
    </contour>
    <contour>
      <point x="0" y="896" type="line"/>
      <point x="2048" y="896" type="line"/>
      <point x="2048" y="768" type="line"/>
      <point x="0" y="768" type="line"/>
    </contour>
    <contour>
      <point x="2048" y="1664" type="line"/>
      <point x="2048" y="1536" type="line"/>
      <point x="641" y="1536" type="line"/>
      <point x="462" y="1664" type="line"/>
    </contour>
    <contour>
      <point x="2048" y="512" type="line"/>
      <point x="2048" y="384" type="line"/>
      <point x="0" y="384" type="line"/>
      <point x="0" y="512" type="line"/>
    </contour>
  </outline>
</glyph>
<glyph name="uniEA20" format="2">
  <advance width="2048"/>
  <unicode hex="EA20"/>
  <outline>
    <contour>
      <point x="88" y="1144" type="line"/>
      <point x="192" y="1039" type="line"/>
      <point x="472" y="1320" type="line"/>
      <point x="552" y="1240" type="line"/>
      <point x="192" y="881" type="line"/>
      <point x="8" y="1064" type="line"/>
    </contour>
    <contour>
      <point x="768" y="1024" type="line"/>
      <point x="768" y="1152" type="line"/>
      <point x="2048" y="1152" type="line"/>
      <point x="2048" y="1024" type="line"/>
    </contour>
  </outline>
</glyph>
<glyph name="uniEA66" format="2">
  <advance width="2048"/>
  <unicode hex="EA66"/>
  <outline>
    <contour>
      <point x="1576" y="1144" type="line"/>
      <point x="1680" y="1039" type="line"/>
      <point x="1960" y="1320" type="line"/>
      <point x="2040" y="1240" type="line"/>
      <point x="1680" y="881" type="line"/>
      <point x="1496" y="1064" type="line"/>
    </contour>
    <contour>
      <point x="0" y="1024" type="line"/>
      <point x="0" y="1152" type="line"/>
      <point x="1280" y="1152" type="line"/>
      <point x="1280" y="1024" type="line"/>
    </contour>
  </outline>
</glyph>
<glyph name="uniEC48" format="2">
  <advance width="2048"/>
  <unicode hex="EC48"/>
  <outline>
    <contour>
      <point x="1367" y="681" type="line"/>
      <point x="1447" y="761"/>
      <point x="1536" y="971"/>
      <point x="1536" y="1088" type="qcurve" smooth="yes"/>
      <point x="1536" y="1244"/>
      <point x="1382" y="1510"/>
      <point x="1116" y="1664"/>
      <point x="804" y="1664"/>
      <point x="538" y="1510"/>
      <point x="384" y="1244"/>
      <point x="384" y="1088" type="qcurve" smooth="yes"/>
      <point x="384" y="957"/>
      <point x="438" y="843" type="qcurve"/>
      <point x="322" y="790" type="line"/>
      <point x="256" y="931"/>
      <point x="256" y="1088" type="qcurve" smooth="yes"/>
      <point x="256" y="1231"/>
      <point x="368" y="1492"/>
      <point x="556" y="1680"/>
      <point x="817" y="1792"/>
      <point x="1103" y="1792"/>
      <point x="1364" y="1680"/>
      <point x="1552" y="1492"/>
      <point x="1664" y="1231"/>
      <point x="1664" y="945"/>
      <point x="1555" y="687"/>
      <point x="1458" y="590" type="qcurve"/>
    </contour>
    <contour>
      <point x="507" y="545" type="line"/>
      <point x="417" y="635" type="line"/>
      <point x="787" y="1005" type="line"/>
      <point x="768" y="1045"/>
      <point x="768" y="1088" type="qcurve" smooth="yes"/>
      <point x="768" y="1168"/>
      <point x="880" y="1280"/>
      <point x="1040" y="1280"/>
      <point x="1152" y="1168"/>
      <point x="1152" y="1008"/>
      <point x="1040" y="896"/>
      <point x="960" y="896" type="qcurve" smooth="yes"/>
      <point x="917" y="896"/>
      <point x="877" y="915" type="qcurve"/>
    </contour>
    <contour>
      <point x="1024" y="1115"/>
      <point x="987" y="1152"/>
      <point x="933" y="1152"/>
      <point x="896" y="1115"/>
      <point x="896" y="1061"/>
      <point x="933" y="1024"/>
      <point x="987" y="1024"/>
      <point x="1024" y="1061"/>
    </contour>
    <contour>
      <point x="1155" y="2048"/>
      <point x="1511" y="1896"/>
      <point x="1768" y="1639"/>
      <point x="1920" y="1283"/>
      <point x="1920" y="893"/>
      <point x="1768" y="537"/>
      <point x="1511" y="280"/>
      <point x="1155" y="128"/>
      <point x="765" y="128"/>
      <point x="409" y="280"/>
      <point x="152" y="537"/>
      <point x="0" y="893"/>
      <point x="0" y="1283"/>
      <point x="152" y="1639"/>
      <point x="409" y="1896"/>
      <point x="765" y="2048"/>
    </contour>
    <contour>
      <point x="1186" y="256"/>
      <point x="1569" y="479"/>
      <point x="1792" y="862"/>
      <point x="1792" y="1314"/>
      <point x="1569" y="1697"/>
      <point x="1186" y="1920"/>
      <point x="734" y="1920"/>
      <point x="351" y="1697"/>
      <point x="128" y="1314"/>
      <point x="128" y="862"/>
      <point x="351" y="479"/>
      <point x="734" y="256"/>
    </contour>
  </outline>
</glyph>
<glyph name="uniEC49" format="2">
  <advance width="2048"/>
  <unicode hex="EC49"/>
  <outline>
    <contour>
      <point x="757" y="1628" type="line"/>
      <point x="591" y="1566"/>
      <point x="384" y="1271"/>
      <point x="384" y="1088" type="qcurve" smooth="yes"/>
      <point x="384" y="971"/>
      <point x="473" y="761"/>
      <point x="553" y="681" type="qcurve"/>
      <point x="462" y="590" type="line"/>
      <point x="365" y="687"/>
      <point x="256" y="945"/>
      <point x="256" y="1088" type="qcurve" smooth="yes"/>
      <point x="256" y="1312"/>
      <point x="510" y="1672"/>
      <point x="713" y="1748" type="qcurve"/>
    </contour>
    <contour>
      <point x="1367" y="681" type="line"/>
      <point x="1447" y="761"/>
      <point x="1536" y="971"/>
      <point x="1536" y="1088" type="qcurve" smooth="yes"/>
      <point x="1536" y="1271"/>
      <point x="1329" y="1566"/>
      <point x="1163" y="1628" type="qcurve"/>
      <point x="1207" y="1748" type="line"/>
      <point x="1410" y="1672"/>
      <point x="1664" y="1312"/>
      <point x="1664" y="1088" type="qcurve" smooth="yes"/>
      <point x="1664" y="945"/>
      <point x="1555" y="687"/>
      <point x="1458" y="590" type="qcurve"/>
    </contour>
    <contour>
      <point x="1152" y="1088" type="qcurve" smooth="yes"/>
      <point x="1152" y="1008"/>
      <point x="1040" y="896"/>
      <point x="880" y="896"/>
      <point x="768" y="1008"/>
      <point x="768" y="1088" type="qcurve" smooth="yes"/>
      <point x="768" y="1150"/>
      <point x="839" y="1249"/>
      <point x="896" y="1269" type="qcurve"/>
      <point x="896" y="1792" type="line"/>
      <point x="1024" y="1792" type="line"/>
      <point x="1024" y="1269" type="line"/>
      <point x="1081" y="1249"/>
      <point x="1152" y="1150"/>
    </contour>
    <contour>
      <point x="933" y="1152"/>
      <point x="896" y="1115"/>
      <point x="896" y="1061"/>
      <point x="933" y="1024"/>
      <point x="987" y="1024"/>
      <point x="1024" y="1061"/>
      <point x="1024" y="1115"/>
      <point x="987" y="1152"/>
    </contour>
    <contour>
      <point x="1920" y="893"/>
      <point x="1768" y="537"/>
      <point x="1511" y="280"/>
      <point x="1155" y="128"/>
      <point x="765" y="128"/>
      <point x="409" y="280"/>
      <point x="152" y="537"/>
      <point x="0" y="893"/>
      <point x="0" y="1283"/>
      <point x="152" y="1639"/>
      <point x="409" y="1896"/>
      <point x="765" y="2048"/>
      <point x="1155" y="2048"/>
      <point x="1511" y="1896"/>
      <point x="1768" y="1639"/>
      <point x="1920" y="1283"/>
    </contour>
    <contour>
      <point x="1792" y="1314"/>
      <point x="1569" y="1697"/>
      <point x="1186" y="1920"/>
      <point x="734" y="1920"/>
      <point x="351" y="1697"/>
      <point x="128" y="1314"/>
      <point x="128" y="862"/>
      <point x="351" y="479"/>
      <point x="734" y="256"/>
      <point x="1186" y="256"/>
      <point x="1569" y="479"/>
      <point x="1792" y="862"/>
    </contour>
  </outline>
</glyph>
<glyph name="uniEE47" format="2">
  <advance width="2048"/>
  <unicode hex="EE47"/>
  <outline>
    <contour>
      <point x="128" y="1920" type="line"/>
      <point x="1920" y="1920" type="line"/>
      <point x="1920" y="128" type="line"/>
      <point x="1152" y="128" type="line"/>
      <point x="1152" y="256" type="line"/>
      <point x="1792" y="256" type="line"/>
      <point x="1792" y="1024" type="line"/>
      <point x="1024" y="1024" type="line"/>
      <point x="1024" y="1792" type="line"/>
      <point x="256" y="1792" type="line"/>
      <point x="256" y="1152" type="line"/>
      <point x="128" y="1152" type="line"/>
    </contour>
    <contour>
      <point x="1152" y="1152" type="line"/>
      <point x="1792" y="1152" type="line"/>
      <point x="1792" y="1792" type="line"/>
      <point x="1152" y="1792" type="line"/>
    </contour>
    <contour>
      <point x="805" y="896" type="line"/>
      <point x="896" y="805" type="line"/>
      <point x="347" y="256" type="line"/>
      <point x="768" y="256" type="line"/>
      <point x="768" y="128" type="line"/>
      <point x="128" y="128" type="line"/>
      <point x="128" y="768" type="line"/>
      <point x="256" y="768" type="line"/>
      <point x="256" y="347" type="line"/>
    </contour>
  </outline>
</glyph>
<glyph name="uniEE49" format="2">
  <advance width="2048"/>
  <unicode hex="EE49"/>
  <outline>
    <contour>
      <point x="128" y="1920" type="line"/>
      <point x="1920" y="1920" type="line"/>
      <point x="1920" y="128" type="line"/>
      <point x="1152" y="128" type="line"/>
      <point x="1152" y="256" type="line"/>
      <point x="1792" y="256" type="line"/>
      <point x="1792" y="1024" type="line"/>
      <point x="1024" y="1024" type="line"/>
      <point x="1024" y="1792" type="line"/>
      <point x="256" y="1792" type="line"/>
      <point x="256" y="1152" type="line"/>
      <point x="128" y="1152" type="line"/>
    </contour>
    <contour>
      <point x="1152" y="1152" type="line"/>
      <point x="1792" y="1152" type="line"/>
      <point x="1792" y="1792" type="line"/>
      <point x="1152" y="1792" type="line"/>
    </contour>
    <contour>
      <point x="256" y="896" type="line"/>
      <point x="896" y="896" type="line"/>
      <point x="896" y="256" type="line"/>
      <point x="768" y="256" type="line"/>
      <point x="768" y="677" type="line"/>
      <point x="219" y="128" type="line"/>
      <point x="128" y="219" type="line"/>
      <point x="677" y="768" type="line"/>
      <point x="256" y="768" type="line"/>
    </contour>
  </outline>
</glyph>
<glyph name="uniEE71" format="2">
  <advance width="2048"/>
  <unicode hex="EE71"/>
  <outline>
    <contour>
      <point x="896" y="1803" type="line"/>
      <point x="621" y="1528" type="line"/>
      <point x="530" y="1618" type="line"/>
      <point x="960" y="2048" type="line"/>
      <point x="1390" y="1618" type="line"/>
      <point x="1299" y="1528" type="line"/>
      <point x="1024" y="1803" type="line"/>
      <point x="1024" y="896" type="line"/>
      <point x="896" y="896" type="line"/>
    </contour>
    <contour>
      <point x="0" y="1792" type="line"/>
      <point x="512" y="1792" type="line"/>
      <point x="384" y="1664" type="line"/>
      <point x="128" y="1664" type="line"/>
      <point x="128" y="987" type="line"/>
      <point x="576" y="1435" type="line"/>
      <point x="768" y="1243" type="line"/>
      <point x="768" y="1062" type="line"/>
      <point x="576" y="1254" type="line"/>
      <point x="128" y="806" type="line"/>
      <point x="128" y="384" type="line"/>
      <point x="1446" y="384" type="line"/>
      <point x="1062" y="768" type="line"/>
      <point x="1152" y="768" type="line"/>
      <point x="1152" y="859" type="line"/>
      <point x="1216" y="795" type="line"/>
      <point x="1472" y="1051" type="line"/>
      <point x="1920" y="603" type="line"/>
      <point x="1920" y="1664" type="line"/>
      <point x="1536" y="1664" type="line"/>
      <point x="1408" y="1792" type="line"/>
      <point x="2048" y="1792" type="line"/>
      <point x="2048" y="256" type="line"/>
      <point x="0" y="256" type="line"/>
    </contour>
    <contour>
      <point x="1920" y="384" type="line"/>
      <point x="1920" y="422" type="line"/>
      <point x="1472" y="870" type="line"/>
      <point x="1307" y="704" type="line"/>
      <point x="1627" y="384" type="line"/>
    </contour>
    <contour>
      <point x="1627" y="1408"/>
      <point x="1664" y="1371"/>
      <point x="1664" y="1317"/>
      <point x="1627" y="1280"/>
      <point x="1573" y="1280"/>
      <point x="1536" y="1317"/>
      <point x="1536" y="1371"/>
      <point x="1573" y="1408"/>
    </contour>
  </outline>
</glyph>
<glyph name="uniF353" format="2">
  <advance width="2048"/>
  <unicode hex="F353"/>
  <outline>
    <contour>
      <point x="384" y="1792" type="line" smooth="yes"/>
      <point x="384" y="1898"/>
      <point x="534" y="2048"/>
      <point x="640" y="2048" type="qcurve" smooth="yes"/>
      <point x="1600" y="2048" type="line" smooth="yes"/>
      <point x="1680" y="2048"/>
      <point x="1792" y="1936"/>
      <point x="1792" y="1856" type="qcurve" smooth="yes"/>
      <point x="1792" y="1792" type="line"/>
      <point x="1728" y="1792" type="line" smooth="yes"/>
      <point x="1701" y="1792"/>
      <point x="1664" y="1755"/>
      <point x="1664" y="1728" type="qcurve" smooth="yes"/>
      <point x="1664" y="1152" type="line"/>
      <point x="384" y="1152" type="line"/>
    </contour>
    <contour>
      <point x="384" y="1024" type="line"/>
      <point x="1664" y="1024" type="line"/>
      <point x="1664" y="768" type="line" smooth="yes"/>
      <point x="1664" y="715"/>
      <point x="1589" y="640"/>
      <point x="1536" y="640" type="qcurve" smooth="yes"/>
      <point x="1280" y="640" type="line"/>
      <point x="1280" y="256" type="line" smooth="yes"/>
      <point x="1280" y="150"/>
      <point x="1130" y="0"/>
      <point x="918" y="0"/>
      <point x="768" y="150"/>
      <point x="768" y="256" type="qcurve" smooth="yes"/>
      <point x="768" y="640" type="line"/>
      <point x="512" y="640" type="line" smooth="yes"/>
      <point x="459" y="640"/>
      <point x="384" y="715"/>
      <point x="384" y="768" type="qcurve" smooth="yes"/>
    </contour>
  </outline>
</glyph>
<glyph name="uniF5B0" format="2">
  <advance width="2048"/>
  <unicode hex="F5B0"/>
  <outline>
    <contour>
      <point x="1792" y="1024" type="line"/>
      <point x="512" y="128" type="line"/>
      <point x="512" y="1920" type="line"/>
    </contour>
  </outline>
</glyph>
<glyph name="uniF5E7" format="2">
  <advance width="2048"/>
  <unicode hex="F5E7"/>
  <outline>
    <contour>
      <point x="702" y="1661" type="qcurve"/>
      <point x="591" y="1772" type="line"/>
      <point x="677" y="1792"/>
      <point x="762" y="1792" type="qcurve" smooth="yes"/>
      <point x="1412" y="1792" type="line"/>
      <point x="1250" y="1954" type="line"/>
      <point x="1341" y="2045" type="line"/>
      <point x="1658" y="1728" type="line"/>
      <point x="1341" y="1411" type="line"/>
      <point x="1250" y="1502" type="line"/>
      <point x="1412" y="1664" type="line"/>
      <point x="762" y="1664" type="line" smooth="yes"/>
      <point x="734" y="1664"/>
    </contour>
    <contour>
      <point x="2048" y="1024" type="qcurve" smooth="yes"/>
      <point x="2048" y="880"/>
      <point x="1945" y="616"/>
      <point x="1852" y="512" type="qcurve"/>
      <point x="1762" y="602" type="line"/>
      <point x="1920" y="783"/>
      <point x="1920" y="1024" type="qcurve" smooth="yes"/>
      <point x="1920" y="1167"/>
      <point x="1801" y="1420"/>
      <point x="1697" y="1510" type="qcurve"/>
      <point x="1788" y="1601" type="line"/>
      <point x="1910" y="1493"/>
      <point x="2048" y="1192"/>
    </contour>
    <contour>
      <point x="1621" y="335" type="line"/>
      <point x="1462" y="256"/>
      <point x="1286" y="256" type="qcurve" smooth="yes"/>
      <point x="636" y="256" type="line"/>
      <point x="798" y="94" type="line"/>
      <point x="707" y="3" type="line"/>
      <point x="390" y="320" type="line"/>
      <point x="707" y="637" type="line"/>
      <point x="798" y="546" type="line"/>
      <point x="636" y="384" type="line"/>
      <point x="1286" y="384" type="line" smooth="yes"/>
      <point x="1408" y="384"/>
      <point x="1524" y="432" type="qcurve"/>
      <point x="404" y="1552" type="line"/>
      <point x="277" y="1464"/>
      <point x="128" y="1185"/>
      <point x="128" y="1024" type="qcurve" smooth="yes"/>
      <point x="128" y="881"/>
      <point x="247" y="628"/>
      <point x="351" y="538" type="qcurve"/>
      <point x="260" y="447" type="line"/>
      <point x="138" y="555"/>
      <point x="0" y="856"/>
      <point x="0" y="1024" type="qcurve" smooth="yes"/>
      <point x="0" y="1210"/>
      <point x="167" y="1537"/>
      <point x="312" y="1644" type="qcurve"/>
      <point x="18" y="1938" type="line"/>
      <point x="109" y="2029" type="line"/>
      <point x="2029" y="109" type="line"/>
      <point x="1938" y="18" type="line"/>
    </contour>
  </outline>
</glyph>
<glyph name="uniF5EB" format="2">
  <advance width="2048"/>
  <unicode hex="F5EB"/>
  <outline>
    <contour>
      <point x="640" y="1920" type="line"/>
      <point x="1920" y="1024" type="line"/>
      <point x="1152" y="487" type="line"/>
      <point x="1152" y="640" type="line"/>
      <point x="1148" y="640" type="line"/>
      <point x="1697" y="1024" type="line"/>
      <point x="768" y="1674" type="line"/>
      <point x="768" y="1024" type="line"/>
      <point x="640" y="1024" type="line"/>
    </contour>
    <contour>
      <point x="512" y="896" type="line"/>
      <point x="640" y="896" type="line"/>
      <point x="640" y="512" type="line"/>
      <point x="1024" y="512" type="line"/>
      <point x="1024" y="384" type="line"/>
      <point x="640" y="384" type="line"/>
      <point x="640" y="0" type="line"/>
      <point x="512" y="0" type="line"/>
      <point x="512" y="384" type="line"/>
      <point x="128" y="384" type="line"/>
      <point x="128" y="512" type="line"/>
      <point x="512" y="512" type="line"/>
    </contour>
  </outline>
</glyph>
<glyph name="uF0021" format="2">
  <advance width="2048"/>
  <unicode hex="F0021"/>
  <outline>
    <contour>
      <point x="430" y="1682" type="line"/>
      <point x="284" y="1536" type="line"/>
      <point x="352" y="1535"/>
      <point x="505" y="1512"/>
      <point x="695" y="1452"/>
      <point x="874" y="1364"/>
      <point x="1062" y="1219"/>
      <point x="1137" y="1129" type="qcurve" smooth="yes"/>
      <point x="1397" y="816"/>
      <point x="1707" y="701" type="qcurve" smooth="yes"/>
      <point x="1871" y="640"/>
      <point x="2048" y="640" type="qcurve"/>
      <point x="2048" y="512" type="line"/>
      <point x="1848" y="512"/>
      <point x="1662" y="581" type="qcurve" smooth="yes"/>
      <point x="1321" y="708"/>
      <point x="1039" y="1047" type="qcurve" smooth="yes"/>
      <point x="957" y="1145"/>
      <point x="746" y="1293"/>
      <point x="539" y="1370"/>
      <point x="360" y="1407"/>
      <point x="284" y="1408" type="qcurve"/>
      <point x="430" y="1262" type="line"/>
      <point x="339" y="1171" type="line"/>
      <point x="38" y="1472" type="line"/>
      <point x="339" y="1773" type="line"/>
    </contour>
    <contour>
      <point x="1662" y="1467" type="qcurve" smooth="yes"/>
      <point x="1848" y="1536"/>
      <point x="2048" y="1536" type="qcurve"/>
      <point x="2048" y="1408" type="line"/>
      <point x="1871" y="1408"/>
      <point x="1707" y="1347" type="qcurve" smooth="yes"/>
      <point x="1509" y="1273"/>
      <point x="1329" y="1117" type="qcurve"/>
      <point x="1288" y="1159"/>
      <point x="1244" y="1212" type="qcurve"/>
      <point x="1443" y="1386"/>
    </contour>
    <contour>
      <point x="284" y="512" type="qcurve"/>
      <point x="430" y="366" type="line"/>
      <point x="339" y="275" type="line"/>
      <point x="38" y="576" type="line"/>
      <point x="339" y="877" type="line"/>
      <point x="430" y="786" type="line"/>
      <point x="284" y="640" type="line"/>
      <point x="352" y="641"/>
      <point x="510" y="670"/>
      <point x="694" y="732"/>
      <point x="887" y="847"/>
      <point x="967" y="924" type="qcurve"/>
      <point x="1009" y="876"/>
      <point x="1054" y="830" type="qcurve"/>
      <point x="964" y="744"/>
      <point x="746" y="614"/>
      <point x="539" y="545"/>
      <point x="361" y="513"/>
    </contour>
  </outline>
</glyph>
<glyph name="uF0022" format="2">
  <advance width="2048"/>
  <unicode hex="F0022"/>
  <outline>
    <contour>
      <point x="384" y="1280" type="line"/>
      <point x="256" y="1280" type="line"/>
      <point x="256" y="1408" type="line"/>
      <point x="384" y="1408" type="line"/>
    </contour>
    <contour>
      <point x="384" y="1152" type="line"/>
      <point x="384" y="1024" type="line"/>
      <point x="256" y="1024" type="line"/>
      <point x="256" y="1152" type="line"/>
    </contour>
    <contour>
      <point x="384" y="896" type="line"/>
      <point x="384" y="768" type="line"/>
      <point x="256" y="768" type="line"/>
      <point x="256" y="896" type="line"/>
    </contour>
    <contour>
      <point x="164" y="1792" type="line"/>
      <point x="18" y="1938" type="line"/>
      <point x="109" y="2029" type="line"/>
      <point x="2029" y="109" type="line"/>
      <point x="1938" y="18" type="line"/>
      <point x="1572" y="384" type="line"/>
      <point x="0" y="384" type="line"/>
      <point x="0" y="1792" type="line"/>
    </contour>
    <contour>
      <point x="384" y="1572" type="line"/>
      <point x="384" y="1536" type="line"/>
      <point x="256" y="1536" type="line"/>
      <point x="256" y="1664" type="line"/>
      <point x="128" y="1664" type="line"/>
      <point x="128" y="512" type="line"/>
      <point x="256" y="512" type="line"/>
      <point x="256" y="640" type="line"/>
      <point x="384" y="640" type="line"/>
      <point x="384" y="512" type="line"/>
      <point x="1444" y="512" type="line"/>
    </contour>
    <contour>
      <point x="2048" y="384" type="line"/>
      <point x="1980" y="384" type="line"/>
      <point x="1852" y="512" type="line"/>
      <point x="1920" y="512" type="line"/>
      <point x="1920" y="1664" type="line"/>
      <point x="1792" y="1664" type="line"/>
      <point x="1792" y="1536" type="line"/>
      <point x="1664" y="1536" type="line"/>
      <point x="1664" y="1664" type="line"/>
      <point x="700" y="1664" type="line"/>
      <point x="572" y="1792" type="line"/>
      <point x="2048" y="1792" type="line"/>
    </contour>
    <contour>
      <point x="1792" y="640" type="line"/>
      <point x="1792" y="572" type="line"/>
      <point x="1724" y="640" type="line"/>
    </contour>
    <contour>
      <point x="1792" y="1408" type="line"/>
      <point x="1792" y="1280" type="line"/>
      <point x="1664" y="1280" type="line"/>
      <point x="1664" y="1408" type="line"/>
    </contour>
    <contour>
      <point x="1792" y="1152" type="line"/>
      <point x="1792" y="1024" type="line"/>
      <point x="1664" y="1024" type="line"/>
      <point x="1664" y="1152" type="line"/>
    </contour>
    <contour>
      <point x="1792" y="896" type="line"/>
      <point x="1792" y="768" type="line"/>
      <point x="1664" y="768" type="line"/>
      <point x="1664" y="896" type="line"/>
    </contour>
  </outline>
</glyph>
<glyph name="uF002A" format="2">
  <advance width="2048"/>
  <unicode hex="F002A"/>
  <outline>
    <contour>
      <point x="584" y="1372" type="qcurve"/>
      <point x="18" y="1938" type="line"/>
      <point x="109" y="2029" type="line"/>
      <point x="2029" y="109" type="line"/>
      <point x="1938" y="18" type="line"/>
      <point x="1358" y="598" type="line"/>
      <point x="1149" y="682"/>
      <point x="994" y="830" type="qcurve"/>
      <point x="1026" y="863"/>
      <point x="1058" y="898" type="qcurve"/>
      <point x="963" y="993" type="line"/>
      <point x="700" y="697"/>
      <point x="386" y="581" type="qcurve" smooth="yes"/>
      <point x="200" y="512"/>
      <point x="0" y="512" type="qcurve"/>
      <point x="0" y="640" type="line"/>
      <point x="177" y="640"/>
      <point x="341" y="701" type="qcurve" smooth="yes"/>
      <point x="627" y="807"/>
      <point x="872" y="1084" type="qcurve"/>
      <point x="777" y="1179" type="line"/>
      <point x="758" y="1157"/>
      <point x="719" y="1117" type="qcurve"/>
      <point x="539" y="1273"/>
      <point x="341" y="1347" type="qcurve" smooth="yes"/>
      <point x="177" y="1408"/>
      <point x="0" y="1408" type="qcurve"/>
      <point x="0" y="1536" type="line"/>
      <point x="200" y="1536"/>
      <point x="386" y="1467" type="qcurve" smooth="yes"/>
      <point x="486" y="1430"/>
    </contour>
    <contour>
      <point x="2010" y="576" type="line"/>
      <point x="1900" y="466" type="line"/>
      <point x="1724" y="642" type="line"/>
      <point x="1752" y="640"/>
      <point x="1764" y="640" type="qcurve"/>
      <point x="1618" y="786" type="line"/>
      <point x="1709" y="877" type="line"/>
    </contour>
    <contour>
      <point x="1764" y="1408" type="line"/>
      <point x="1635" y="1407"/>
      <point x="1310" y="1305"/>
      <point x="1167" y="1197" type="qcurve"/>
      <point x="1076" y="1289" type="line"/>
      <point x="1188" y="1377"/>
      <point x="1457" y="1493"/>
      <point x="1670" y="1535"/>
      <point x="1764" y="1536" type="qcurve"/>
      <point x="1618" y="1682" type="line"/>
      <point x="1709" y="1773" type="line"/>
      <point x="2010" y="1472" type="line"/>
      <point x="1709" y="1171" type="line"/>
      <point x="1618" y="1262" type="line"/>
    </contour>
  </outline>
</glyph>
<glyph name="uF002B" format="2">
  <advance width="2048"/>
  <unicode hex="F002B"/>
  <outline>
    <contour>
      <point x="261" y="1695" type="line"/>
      <point x="18" y="1938" type="line"/>
      <point x="109" y="2029" type="line"/>
      <point x="2029" y="109" type="line"/>
      <point x="1938" y="18" type="line"/>
      <point x="613" y="1343" type="line"/>
      <point x="441" y="1406"/>
      <point x="284" y="1408" type="qcurve"/>
      <point x="430" y="1262" type="line"/>
      <point x="339" y="1171" type="line"/>
      <point x="38" y="1472" type="line"/>
    </contour>
    <contour>
      <point x="352" y="1604" type="line"/>
      <point x="284" y="1536" type="line"/>
      <point x="353" y="1535"/>
      <point x="434" y="1522" type="qcurve"/>
    </contour>
    <contour>
      <point x="2048" y="512" type="line"/>
      <point x="1935" y="512"/>
      <point x="1831" y="533" type="qcurve"/>
      <point x="1632" y="732" type="line"/>
      <point x="1668" y="716"/>
      <point x="1707" y="701" type="qcurve" smooth="yes"/>
      <point x="1871" y="640"/>
      <point x="2048" y="640" type="qcurve"/>
    </contour>
    <contour>
      <point x="1244" y="1212" type="qcurve"/>
      <point x="1443" y="1386"/>
      <point x="1662" y="1467" type="qcurve" smooth="yes"/>
      <point x="1848" y="1536"/>
      <point x="2048" y="1536" type="qcurve"/>
      <point x="2048" y="1408" type="line"/>
      <point x="1871" y="1408"/>
      <point x="1707" y="1347" type="qcurve" smooth="yes"/>
      <point x="1509" y="1273"/>
      <point x="1329" y="1117" type="qcurve"/>
      <point x="1288" y="1159"/>
    </contour>
    <contour>
      <point x="284" y="512" type="qcurve"/>
      <point x="430" y="366" type="line"/>
      <point x="339" y="275" type="line"/>
      <point x="38" y="576" type="line"/>
      <point x="339" y="877" type="line"/>
      <point x="430" y="786" type="line"/>
      <point x="284" y="640" type="line"/>
      <point x="352" y="641"/>
      <point x="510" y="670"/>
      <point x="694" y="732"/>
      <point x="887" y="847"/>
      <point x="967" y="924" type="qcurve"/>
      <point x="1009" y="876"/>
      <point x="1054" y="830" type="qcurve"/>
      <point x="964" y="744"/>
      <point x="746" y="614"/>
      <point x="539" y="545"/>
      <point x="361" y="513"/>
    </contour>
  </outline>
</glyph>
<glyph name="uF0036" format="2">
  <advance width="2048"/>
  <unicode hex="F0036"/>
  <outline>
    <contour>
      <point x="512" y="1444" type="line"/>
      <point x="18" y="1938" type="line"/>
      <point x="109" y="2029" type="line"/>
      <point x="2029" y="109" type="line"/>
      <point x="1938" y="18" type="line"/>
      <point x="1698" y="258" type="line"/>
      <point x="1681" y="256"/>
      <point x="1664" y="256" type="qcurve" smooth="yes"/>
      <point x="1558" y="256"/>
      <point x="1408" y="387"/>
      <point x="1408" y="480" type="qcurve" smooth="yes"/>
      <point x="1408" y="510"/>
      <point x="1417" y="539" type="qcurve"/>
      <point x="1152" y="804" type="line"/>
      <point x="1152" y="352" type="line" smooth="yes"/>
      <point x="1152" y="259"/>
      <point x="1002" y="128"/>
      <point x="790" y="128"/>
      <point x="640" y="259"/>
      <point x="640" y="445"/>
      <point x="790" y="576"/>
      <point x="896" y="576" type="qcurve" smooth="yes"/>
      <point x="965" y="576"/>
      <point x="1024" y="546" type="qcurve"/>
      <point x="1024" y="932" type="line"/>
      <point x="640" y="1316" type="line"/>
      <point x="640" y="864" type="line" smooth="yes"/>
      <point x="640" y="771"/>
      <point x="490" y="640"/>
      <point x="278" y="640"/>
      <point x="128" y="771"/>
      <point x="128" y="957"/>
      <point x="278" y="1088"/>
      <point x="384" y="1088" type="qcurve" smooth="yes"/>
      <point x="453" y="1088"/>
      <point x="512" y="1058" type="qcurve"/>
    </contour>
    <contour>
      <point x="512" y="897"/>
      <point x="444" y="960"/>
      <point x="324" y="960"/>
      <point x="256" y="897"/>
      <point x="256" y="831"/>
      <point x="324" y="768"/>
      <point x="444" y="768"/>
      <point x="512" y="831"/>
    </contour>
    <contour>
      <point x="836" y="448"/>
      <point x="768" y="385"/>
      <point x="768" y="319"/>
      <point x="836" y="256"/>
      <point x="956" y="256"/>
      <point x="1024" y="319"/>
      <point x="1024" y="385"/>
      <point x="956" y="448"/>
    </contour>
    <contour>
      <point x="1920" y="480" type="line" smooth="yes"/>
      <point x="1920" y="465"/>
      <point x="1917" y="447" type="qcurve"/>
      <point x="1660" y="704" type="line"/>
      <point x="1664" y="704" type="line" smooth="yes"/>
      <point x="1733" y="704"/>
      <point x="1792" y="674" type="qcurve"/>
      <point x="1792" y="1342" type="line"/>
      <point x="1176" y="1188" type="line"/>
      <point x="1070" y="1294" type="line"/>
      <point x="1920" y="1506" type="line"/>
    </contour>
    <contour>
      <point x="787" y="1672" type="line" smooth="yes"/>
      <point x="869" y="1590"/>
      <point x="890" y="1474" type="qcurve"/>
      <point x="512" y="1852" type="line"/>
      <point x="512" y="1920" type="line"/>
      <point x="640" y="1920" type="line"/>
      <point x="640" y="1819"/>
      <point x="712" y="1747" type="qcurve" smooth="yes"/>
    </contour>
  </outline>
</glyph>
<glyph name="uF004D" format="2">
  <advance width="2048"/>
  <unicode hex="F004D"/>
  <outline>
    <contour>
      <point x="390" y="1728" type="line"/>
      <point x="707" y="2045" type="line"/>
      <point x="798" y="1954" type="line"/>
      <point x="636" y="1792" type="line"/>
      <point x="1286" y="1792" type="line" smooth="yes"/>
      <point x="1441" y="1792"/>
      <point x="1724" y="1669"/>
      <point x="1927" y="1463"/>
      <point x="2048" y="1179"/>
      <point x="2048" y="1024" type="qcurve" smooth="yes"/>
      <point x="2048" y="856"/>
      <point x="1910" y="555"/>
      <point x="1788" y="447" type="qcurve"/>
      <point x="1697" y="538" type="line"/>
      <point x="1801" y="628"/>
      <point x="1920" y="881"/>
      <point x="1920" y="1024" type="qcurve" smooth="yes"/>
      <point x="1920" y="1153"/>
      <point x="1819" y="1390"/>
      <point x="1650" y="1562"/>
      <point x="1415" y="1664"/>
      <point x="1286" y="1664" type="qcurve" smooth="yes"/>
      <point x="636" y="1664" type="line"/>
      <point x="798" y="1502" type="line"/>
      <point x="707" y="1411" type="line"/>
    </contour>
    <contour>
      <point x="128" y="1024" type="qcurve" smooth="yes"/>
      <point x="128" y="895"/>
      <point x="229" y="658"/>
      <point x="398" y="486"/>
      <point x="633" y="384"/>
      <point x="762" y="384" type="qcurve" smooth="yes"/>
      <point x="1412" y="384" type="line"/>
      <point x="1250" y="546" type="line"/>
      <point x="1341" y="637" type="line"/>
      <point x="1658" y="320" type="line"/>
      <point x="1341" y="3" type="line"/>
      <point x="1250" y="94" type="line"/>
      <point x="1412" y="256" type="line"/>
      <point x="762" y="256" type="line" smooth="yes"/>
      <point x="607" y="256"/>
      <point x="324" y="379"/>
      <point x="121" y="585"/>
      <point x="0" y="869"/>
      <point x="0" y="1024" type="qcurve" smooth="yes"/>
      <point x="0" y="1192"/>
      <point x="138" y="1493"/>
      <point x="260" y="1601" type="qcurve"/>
      <point x="351" y="1510" type="line"/>
      <point x="247" y="1420"/>
      <point x="128" y="1167"/>
    </contour>
    <contour>
      <point x="1024" y="640" type="line"/>
      <point x="1024" y="1228" type="line"/>
      <point x="995" y="1207"/>
      <point x="963" y="1193" type="qcurve" smooth="yes"/>
      <point x="938" y="1183"/>
      <point x="896" y="1172" type="qcurve"/>
      <point x="896" y="1301" type="line"/>
      <point x="946" y="1318"/>
      <point x="1002" y="1347" type="qcurve" smooth="yes"/>
      <point x="1053" y="1374"/>
      <point x="1101" y="1408" type="qcurve"/>
      <point x="1152" y="1408" type="line"/>
      <point x="1152" y="640" type="line"/>
    </contour>
  </outline>
</glyph>
<glyph name="uF004E" format="2">
  <advance width="2048"/>
  <unicode hex="F004E"/>
  <outline>
    <contour>
      <point x="351" y="1510" type="line"/>
      <point x="247" y="1420"/>
      <point x="128" y="1167"/>
      <point x="128" y="1024" type="qcurve" smooth="yes"/>
      <point x="128" y="895"/>
      <point x="229" y="658"/>
      <point x="398" y="486"/>
      <point x="633" y="384"/>
      <point x="762" y="384" type="qcurve" smooth="yes"/>
      <point x="1412" y="384" type="line"/>
      <point x="1250" y="546" type="line"/>
      <point x="1341" y="637" type="line"/>
      <point x="1658" y="320" type="line"/>
      <point x="1341" y="3" type="line"/>
      <point x="1250" y="94" type="line"/>
      <point x="1412" y="256" type="line"/>
      <point x="762" y="256" type="line" smooth="yes"/>
      <point x="607" y="256"/>
      <point x="324" y="379"/>
      <point x="121" y="585"/>
      <point x="0" y="869"/>
      <point x="0" y="1024" type="qcurve" smooth="yes"/>
      <point x="0" y="1192"/>
      <point x="138" y="1493"/>
      <point x="260" y="1601" type="qcurve"/>
    </contour>
    <contour>
      <point x="707" y="2045" type="line"/>
      <point x="798" y="1954" type="line"/>
      <point x="636" y="1792" type="line"/>
      <point x="1286" y="1792" type="line" smooth="yes"/>
      <point x="1441" y="1792"/>
      <point x="1724" y="1669"/>
      <point x="1927" y="1463"/>
      <point x="2048" y="1179"/>
      <point x="2048" y="1024" type="qcurve" smooth="yes"/>
      <point x="2048" y="856"/>
      <point x="1910" y="555"/>
      <point x="1788" y="447" type="qcurve"/>
      <point x="1697" y="538" type="line"/>
      <point x="1801" y="628"/>
      <point x="1920" y="881"/>
      <point x="1920" y="1024" type="qcurve" smooth="yes"/>
      <point x="1920" y="1153"/>
      <point x="1819" y="1390"/>
      <point x="1650" y="1562"/>
      <point x="1415" y="1664"/>
      <point x="1286" y="1664" type="qcurve" smooth="yes"/>
      <point x="636" y="1664" type="line"/>
      <point x="798" y="1502" type="line"/>
      <point x="707" y="1411" type="line"/>
      <point x="390" y="1728" type="line"/>
    </contour>
  </outline>
</glyph>
<glyph name="uF006F" format="2">
  <advance width="2048"/>
  <unicode hex="F006F"/>
  <outline>
    <contour>
      <point x="1510" y="1024" type="line"/>
      <point x="1510" y="1792" type="line"/>
      <point x="2048" y="1408" type="line"/>
    </contour>
    <contour>
      <point x="1866" y="1408" type="line"/>
      <point x="1616" y="1586" type="line"/>
      <point x="1616" y="1230" type="line"/>
    </contour>
    <contour>
      <point x="1346" y="1152" type="line"/>
      <point x="0" y="1152" type="line"/>
      <point x="0" y="1280" type="line"/>
      <point x="1346" y="1280" type="line"/>
    </contour>
    <contour>
      <point x="1346" y="1664" type="line"/>
      <point x="1346" y="1536" type="line"/>
      <point x="0" y="1536" type="line"/>
      <point x="0" y="1664" type="line"/>
    </contour>
    <contour>
      <point x="2048" y="896" type="line"/>
      <point x="2048" y="768" type="line"/>
      <point x="0" y="768" type="line"/>
      <point x="0" y="896" type="line"/>
    </contour>
    <contour>
      <point x="2048" y="512" type="line"/>
      <point x="2048" y="384" type="line"/>
      <point x="0" y="384" type="line"/>
      <point x="0" y="512" type="line"/>
    </contour>
  </outline>
</glyph>
<glyph name="uF00A8" format="2">
  <advance width="2048"/>
  <unicode hex="F00A8"/>
  <outline>
    <contour>
      <point x="128" y="1792" type="line"/>
      <point x="1920" y="1792" type="line"/>
      <point x="1920" y="0" type="line"/>
      <point x="128" y="0" type="line"/>
    </contour>
    <contour>
      <point x="256" y="1664" type="line"/>
      <point x="256" y="128" type="line"/>
      <point x="1792" y="128" type="line"/>
      <point x="1792" y="1664" type="line"/>
    </contour>
    <contour>
      <point x="384" y="2048" type="line"/>
      <point x="1664" y="2048" type="line"/>
      <point x="1664" y="1920" type="line"/>
      <point x="384" y="1920" type="line"/>
    </contour>
    <contour>
      <point x="640" y="1408" type="line"/>
      <point x="1452" y="896" type="line"/>
      <point x="640" y="384" type="line"/>
    </contour>
    <contour>
      <point x="768" y="616" type="line"/>
      <point x="1212" y="896" type="line"/>
      <point x="768" y="1176" type="line"/>
    </contour>
  </outline>
</glyph>
<glyph name="uF00A9" format="2">
  <advance width="2048"/>
  <unicode hex="F00A9"/>
  <outline>
    <contour>
      <point x="128" y="1792" type="line"/>
      <point x="164" y="1792" type="line"/>
      <point x="18" y="1938" type="line"/>
      <point x="109" y="2029" type="line"/>
      <point x="2029" y="109" type="line"/>
      <point x="1938" y="18" type="line"/>
      <point x="1920" y="36" type="line"/>
      <point x="1920" y="0" type="line"/>
      <point x="128" y="0" type="line"/>
    </contour>
    <contour>
      <point x="256" y="1664" type="line"/>
      <point x="256" y="128" type="line"/>
      <point x="1792" y="128" type="line"/>
      <point x="1792" y="164" type="line"/>
      <point x="1212" y="744" type="line"/>
      <point x="640" y="384" type="line"/>
      <point x="640" y="1316" type="line"/>
      <point x="292" y="1664" type="line"/>
    </contour>
    <contour>
      <point x="768" y="616" type="line"/>
      <point x="1119" y="837" type="line"/>
      <point x="800" y="1156" type="line"/>
      <point x="768" y="1176" type="line"/>
    </contour>
    <contour>
      <point x="572" y="1792" type="line"/>
      <point x="1920" y="1792" type="line"/>
      <point x="1920" y="444" type="line"/>
      <point x="1792" y="572" type="line"/>
      <point x="1792" y="1664" type="line"/>
      <point x="700" y="1664" type="line"/>
    </contour>
    <contour>
      <point x="384" y="2048" type="line"/>
      <point x="1664" y="2048" type="line"/>
      <point x="1664" y="1920" type="line"/>
      <point x="444" y="1920" type="line"/>
      <point x="384" y="1980" type="line"/>
    </contour>
  </outline>
</glyph>
<glyph name="uF00AA" format="2">
  <advance width="2048"/>
  <unicode hex="F00AA"/>
  <outline>
    <contour>
      <point x="128" y="1792" type="line"/>
      <point x="1920" y="1792" type="line"/>
      <point x="1920" y="768" type="line"/>
      <point x="1792" y="768" type="line"/>
      <point x="1792" y="1664" type="line"/>
      <point x="256" y="1664" type="line"/>
      <point x="256" y="128" type="line"/>
      <point x="1280" y="128" type="line"/>
      <point x="1280" y="0" type="line"/>
      <point x="128" y="0" type="line"/>
    </contour>
    <contour>
      <point x="384" y="2048" type="line"/>
      <point x="1664" y="2048" type="line"/>
      <point x="1664" y="1920" type="line"/>
      <point x="384" y="1920" type="line"/>
    </contour>
    <contour>
      <point x="768" y="1176" type="line"/>
      <point x="768" y="616" type="line"/>
      <point x="1212" y="896" type="line"/>
    </contour>
    <contour>
      <point x="640" y="1408" type="line"/>
      <point x="1452" y="896" type="line"/>
      <point x="640" y="384" type="line"/>
    </contour>
    <contour>
      <point x="1408" y="384" type="line"/>
      <point x="1664" y="384" type="line"/>
      <point x="1664" y="640" type="line"/>
      <point x="1792" y="640" type="line"/>
      <point x="1792" y="384" type="line"/>
      <point x="2048" y="384" type="line"/>
      <point x="2048" y="256" type="line"/>
      <point x="1792" y="256" type="line"/>
      <point x="1792" y="0" type="line"/>
      <point x="1664" y="0" type="line"/>
      <point x="1664" y="256" type="line"/>
      <point x="1408" y="256" type="line"/>
    </contour>
  </outline>
</glyph>
<glyph name="uF00AB" format="2">
  <advance width="2048"/>
  <unicode hex="F00AB"/>
  <outline>
    <contour>
      <point x="128" y="1792" type="line"/>
      <point x="1920" y="1792" type="line"/>
      <point x="1920" y="0" type="line"/>
      <point x="768" y="0" type="line"/>
      <point x="768" y="128" type="line"/>
      <point x="1792" y="128" type="line"/>
      <point x="1792" y="1664" type="line"/>
      <point x="256" y="1664" type="line"/>
      <point x="256" y="768" type="line"/>
      <point x="128" y="768" type="line"/>
    </contour>
    <contour>
      <point x="384" y="2048" type="line"/>
      <point x="1664" y="2048" type="line"/>
      <point x="1664" y="1920" type="line"/>
      <point x="384" y="1920" type="line"/>
    </contour>
    <contour>
      <point x="640" y="1408" type="line"/>
      <point x="1452" y="896" type="line"/>
      <point x="768" y="465" type="line"/>
      <point x="768" y="616" type="line"/>
      <point x="1212" y="896" type="line"/>
      <point x="768" y="1176" type="line"/>
      <point x="768" y="768" type="line"/>
      <point x="640" y="768" type="line"/>
    </contour>
    <contour>
      <point x="0" y="384" type="line"/>
      <point x="256" y="384" type="line"/>
      <point x="256" y="640" type="line"/>
      <point x="384" y="640" type="line"/>
      <point x="384" y="384" type="line"/>
      <point x="640" y="384" type="line"/>
      <point x="640" y="256" type="line"/>
      <point x="384" y="256" type="line"/>
      <point x="384" y="0" type="line"/>
      <point x="256" y="0" type="line"/>
      <point x="256" y="256" type="line"/>
      <point x="0" y="256" type="line"/>
    </contour>
  </outline>
</glyph>
<glyph name="uF00B7" format="2">
  <advance width="2048"/>
  <unicode hex="F00B7"/>
  <outline>
    <contour>
      <point x="256" y="2048" type="line"/>
      <point x="1664" y="2048" type="line" smooth="yes"/>
      <point x="1717" y="2048"/>
      <point x="1792" y="1973"/>
      <point x="1792" y="1920" type="qcurve" smooth="yes"/>
      <point x="1792" y="927" type="line" smooth="yes"/>
      <point x="1792" y="872"/>
      <point x="1826" y="828" type="qcurve" smooth="yes"/>
      <point x="1859" y="786" type="line" smooth="yes"/>
      <point x="1920" y="708"/>
      <point x="1920" y="609" type="qcurve" smooth="yes"/>
      <point x="1920" y="128" type="line" smooth="yes"/>
      <point x="1920" y="75"/>
      <point x="1845" y="0"/>
      <point x="1792" y="0" type="qcurve" smooth="yes"/>
      <point x="1152" y="0" type="line"/>
      <point x="1152" y="128" type="line"/>
      <point x="1536" y="128" type="line"/>
      <point x="1536" y="609" type="line" smooth="yes"/>
      <point x="1536" y="708"/>
      <point x="1597" y="786" type="qcurve" smooth="yes"/>
      <point x="1630" y="828" type="line" smooth="yes"/>
      <point x="1664" y="872"/>
      <point x="1664" y="927" type="qcurve" smooth="yes"/>
      <point x="1664" y="1920" type="line"/>
      <point x="384" y="1920" type="line"/>
      <point x="384" y="1024" type="line"/>
      <point x="256" y="1024" type="line"/>
    </contour>
    <contour>
      <point x="1792" y="609" type="line" smooth="yes"/>
      <point x="1792" y="664"/>
      <point x="1758" y="708" type="qcurve" smooth="yes"/>
      <point x="1728" y="746" type="line"/>
      <point x="1698" y="708" type="line" smooth="yes"/>
      <point x="1664" y="664"/>
      <point x="1664" y="609" type="qcurve" smooth="yes"/>
      <point x="1664" y="128" type="line"/>
      <point x="1792" y="128" type="line"/>
    </contour>
    <contour>
      <point x="1024" y="896" type="line"/>
      <point x="1024" y="0" type="line"/>
      <point x="0" y="0" type="line"/>
      <point x="0" y="896" type="line"/>
    </contour>
    <contour>
      <point x="128" y="640" type="line"/>
      <point x="256" y="640" type="line"/>
      <point x="256" y="512" type="line"/>
      <point x="128" y="512" type="line"/>
      <point x="128" y="384" type="line"/>
      <point x="256" y="384" type="line"/>
      <point x="256" y="256" type="line"/>
      <point x="128" y="256" type="line"/>
      <point x="128" y="128" type="line"/>
      <point x="896" y="128" type="line"/>
      <point x="896" y="256" type="line"/>
      <point x="768" y="256" type="line"/>
      <point x="768" y="384" type="line"/>
      <point x="896" y="384" type="line"/>
      <point x="896" y="512" type="line"/>
      <point x="768" y="512" type="line"/>
      <point x="768" y="640" type="line"/>
      <point x="896" y="640" type="line"/>
      <point x="896" y="768" type="line"/>
      <point x="128" y="768" type="line"/>
    </contour>
  </outline>
</glyph>
<glyph name="uF00B9" format="2">
  <advance width="2048"/>
  <unicode hex="F00B9"/>
  <outline>
    <contour>
      <point x="256" y="2048" type="line"/>
      <point x="1664" y="2048" type="line" smooth="yes"/>
      <point x="1717" y="2048"/>
      <point x="1792" y="1973"/>
      <point x="1792" y="1920" type="qcurve" smooth="yes"/>
      <point x="1792" y="927" type="line" smooth="yes"/>
      <point x="1792" y="872"/>
      <point x="1826" y="828" type="qcurve" smooth="yes"/>
      <point x="1859" y="786" type="line" smooth="yes"/>
      <point x="1920" y="708"/>
      <point x="1920" y="609" type="qcurve" smooth="yes"/>
      <point x="1920" y="128" type="line" smooth="yes"/>
      <point x="1920" y="75"/>
      <point x="1845" y="0"/>
      <point x="1792" y="0" type="qcurve" smooth="yes"/>
      <point x="1024" y="0" type="line"/>
      <point x="1024" y="128" type="line"/>
      <point x="1536" y="128" type="line"/>
      <point x="1536" y="609" type="line" smooth="yes"/>
      <point x="1536" y="708"/>
      <point x="1597" y="786" type="qcurve" smooth="yes"/>
      <point x="1630" y="828" type="line" smooth="yes"/>
      <point x="1664" y="872"/>
      <point x="1664" y="927" type="qcurve" smooth="yes"/>
      <point x="1664" y="1920" type="line"/>
      <point x="384" y="1920" type="line"/>
      <point x="384" y="1056" type="line"/>
      <point x="256" y="1024" type="line"/>
    </contour>
    <contour>
      <point x="1792" y="609" type="line" smooth="yes"/>
      <point x="1792" y="664"/>
      <point x="1758" y="708" type="qcurve" smooth="yes"/>
      <point x="1728" y="746" type="line"/>
      <point x="1698" y="708" type="line" smooth="yes"/>
      <point x="1664" y="664"/>
      <point x="1664" y="609" type="qcurve" smooth="yes"/>
      <point x="1664" y="128" type="line"/>
      <point x="1792" y="128" type="line"/>
    </contour>
    <contour>
      <point x="896" y="962" type="line"/>
      <point x="896" y="256" type="line" smooth="yes"/>
      <point x="896" y="203"/>
      <point x="802" y="128"/>
      <point x="670" y="128"/>
      <point x="576" y="203"/>
      <point x="576" y="309"/>
      <point x="670" y="384"/>
      <point x="736" y="384" type="qcurve" smooth="yes"/>
      <point x="750" y="384"/>
      <point x="768" y="381" type="qcurve"/>
      <point x="768" y="798" type="line"/>
      <point x="384" y="702" type="line"/>
      <point x="384" y="128" type="line" smooth="yes"/>
      <point x="384" y="75"/>
      <point x="286" y="0"/>
      <point x="146" y="0"/>
      <point x="48" y="75"/>
      <point x="48" y="181"/>
      <point x="146" y="256"/>
      <point x="216" y="256" type="qcurve" smooth="yes"/>
      <point x="235" y="256"/>
      <point x="256" y="252" type="qcurve"/>
      <point x="256" y="802" type="line"/>
    </contour>
  </outline>
</glyph>
<glyph name="uF00C2" format="2">
  <advance width="2048"/>
  <unicode hex="F00C2"/>
  <outline>
    <contour>
      <point x="0" y="1792" type="line"/>
      <point x="538" y="1408" type="line"/>
      <point x="0" y="1024" type="line"/>
    </contour>
    <contour>
      <point x="106" y="1230" type="line"/>
      <point x="356" y="1408" type="line"/>
      <point x="106" y="1586" type="line"/>
    </contour>
    <contour>
      <point x="462" y="1664" type="line"/>
      <point x="2048" y="1664" type="line"/>
      <point x="2048" y="1536" type="line"/>
      <point x="641" y="1536" type="line"/>
    </contour>
    <contour>
      <point x="641" y="1280" type="line"/>
      <point x="2048" y="1280" type="line"/>
      <point x="2048" y="1152" type="line"/>
      <point x="462" y="1152" type="line"/>
    </contour>
    <contour>
      <point x="0" y="896" type="line"/>
      <point x="1536" y="896" type="line"/>
      <point x="1536" y="768" type="line"/>
      <point x="0" y="768" type="line"/>
    </contour>
    <contour>
      <point x="0" y="512" type="line"/>
      <point x="1280" y="512" type="line"/>
      <point x="1280" y="384" type="line"/>
      <point x="0" y="384" type="line"/>
    </contour>
    <contour>
      <point x="1408" y="512" type="line"/>
      <point x="1664" y="512" type="line"/>
      <point x="1664" y="768" type="line"/>
      <point x="1792" y="768" type="line"/>
      <point x="1792" y="512" type="line"/>
      <point x="2048" y="512" type="line"/>
      <point x="2048" y="384" type="line"/>
      <point x="1792" y="384" type="line"/>
      <point x="1792" y="124" type="line"/>
      <point x="1664" y="124" type="line"/>
      <point x="1664" y="384" type="line"/>
      <point x="1408" y="384" type="line"/>
    </contour>
  </outline>
</glyph>
<glyph name="uF00C3" format="2">
  <advance width="2048"/>
  <unicode hex="F00C3"/>
  <outline>
    <contour>
      <point x="0" y="1664" type="line"/>
      <point x="1280" y="1664" type="line"/>
      <point x="1280" y="1536" type="line"/>
      <point x="0" y="1536" type="line"/>
    </contour>
    <contour>
      <point x="0" y="1280" type="line"/>
      <point x="1280" y="1280" type="line"/>
      <point x="1280" y="1152" type="line"/>
      <point x="0" y="1152" type="line"/>
    </contour>
    <contour>
      <point x="1408" y="1792" type="line"/>
      <point x="1946" y="1408" type="line"/>
      <point x="1408" y="1024" type="line"/>
    </contour>
    <contour>
      <point x="1514" y="1230" type="line"/>
      <point x="1764" y="1408" type="line"/>
      <point x="1514" y="1586" type="line"/>
    </contour>
    <contour>
      <point x="0" y="512" type="line"/>
      <point x="256" y="512" type="line"/>
      <point x="256" y="768" type="line"/>
      <point x="384" y="768" type="line"/>
      <point x="384" y="512" type="line"/>
      <point x="640" y="512" type="line"/>
      <point x="640" y="384" type="line"/>
      <point x="384" y="384" type="line"/>
      <point x="384" y="124" type="line"/>
      <point x="256" y="124" type="line"/>
      <point x="256" y="384" type="line"/>
      <point x="0" y="384" type="line"/>
    </contour>
    <contour>
      <point x="512" y="896" type="line"/>
      <point x="2048" y="896" type="line"/>
      <point x="2048" y="768" type="line"/>
      <point x="512" y="768" type="line"/>
    </contour>
    <contour>
      <point x="768" y="512" type="line"/>
      <point x="2048" y="512" type="line"/>
      <point x="2048" y="384" type="line"/>
      <point x="768" y="384" type="line"/>
    </contour>
  </outline>
</glyph>
<glyph name="uF00F0" format="2">
  <advance width="2048"/>
  <unicode hex="F00F0"/>
  <outline>
    <contour>
      <point x="640" y="1536" type="line"/>
      <point x="1024" y="1536" type="line"/>
      <point x="1024" y="1408" type="line"/>
      <point x="640" y="1408" type="line"/>
    </contour>
    <contour>
      <point x="640" y="1280" type="line"/>
      <point x="896" y="1280" type="line"/>
      <point x="896" y="1024" type="line"/>
      <point x="640" y="1024" type="line"/>
    </contour>
    <contour>
      <point x="1280" y="1024" type="line"/>
      <point x="1024" y="1024" type="line"/>
      <point x="1024" y="1280" type="line"/>
      <point x="1280" y="1280" type="line"/>
    </contour>
    <contour>
      <point x="1408" y="1024" type="line"/>
      <point x="1408" y="1280" type="line"/>
      <point x="1664" y="1280" type="line"/>
      <point x="1664" y="1024" type="line"/>
    </contour>
    <contour>
      <point x="640" y="640" type="line"/>
      <point x="640" y="896" type="line"/>
      <point x="896" y="896" type="line"/>
      <point x="896" y="640" type="line"/>
    </contour>
    <contour>
      <point x="1024" y="640" type="line"/>
      <point x="1024" y="896" type="line"/>
      <point x="1280" y="896" type="line"/>
      <point x="1280" y="640" type="line"/>
    </contour>
    <contour>
      <point x="1408" y="1536" type="line"/>
      <point x="1664" y="1536" type="line"/>
      <point x="1664" y="1408" type="line"/>
      <point x="1408" y="1408" type="line"/>
    </contour>
    <contour>
      <point x="128" y="1792" type="line"/>
      <point x="1920" y="1792" type="line"/>
      <point x="1920" y="384" type="line"/>
      <point x="128" y="384" type="line"/>
    </contour>
    <contour>
      <point x="256" y="1664" type="line"/>
      <point x="256" y="512" type="line"/>
      <point x="384" y="512" type="line"/>
      <point x="384" y="1664" type="line"/>
    </contour>
    <contour>
      <point x="512" y="1664" type="line"/>
      <point x="512" y="512" type="line"/>
      <point x="1792" y="512" type="line"/>
      <point x="1792" y="1664" type="line"/>
    </contour>
  </outline>
</glyph>
<glyph name="uF010D" format="2">
  <advance width="2048"/>
  <unicode hex="F010D"/>
  <outline>
    <contour>
      <point x="2048" y="1792" type="line"/>
      <point x="2048" y="1184" type="line"/>
      <point x="1920" y="1152" type="line"/>
      <point x="1920" y="1664" type="line"/>
      <point x="128" y="1664" type="line"/>
      <point x="128" y="384" type="line"/>
      <point x="294" y="384" type="line"/>
      <point x="832" y="922" type="line"/>
      <point x="1152" y="602" type="line"/>
      <point x="1280" y="730" type="line"/>
      <point x="1280" y="550" type="line"/>
      <point x="1242" y="512" type="line"/>
      <point x="1280" y="474" type="line"/>
      <point x="1280" y="451" type="line"/>
      <point x="1221" y="438"/>
      <point x="1166" y="407" type="qcurve"/>
      <point x="832" y="741" type="line"/>
      <point x="475" y="384" type="line"/>
      <point x="1129" y="384" type="line"/>
      <point x="1060" y="333"/>
      <point x="1024" y="256" type="qcurve"/>
      <point x="0" y="256" type="line"/>
      <point x="0" y="1792" type="line"/>
    </contour>
    <contour>
      <point x="1189" y="896"/>
      <point x="1152" y="933"/>
      <point x="1152" y="987"/>
      <point x="1189" y="1024"/>
      <point x="1243" y="1024"/>
      <point x="1280" y="987"/>
      <point x="1280" y="933"/>
      <point x="1243" y="896"/>
    </contour>
    <contour>
      <point x="384" y="1408" type="line"/>
      <point x="256" y="1408" type="line"/>
      <point x="256" y="1536" type="line"/>
      <point x="384" y="1536" type="line"/>
    </contour>
    <contour>
      <point x="384" y="1152" type="line"/>
      <point x="256" y="1152" type="line"/>
      <point x="256" y="1280" type="line"/>
      <point x="384" y="1280" type="line"/>
    </contour>
    <contour>
      <point x="256" y="1024" type="line"/>
      <point x="384" y="1024" type="line"/>
      <point x="384" y="896" type="line"/>
      <point x="256" y="896" type="line"/>
    </contour>
    <contour>
      <point x="384" y="640" type="line"/>
      <point x="256" y="640" type="line"/>
      <point x="256" y="768" type="line"/>
      <point x="384" y="768" type="line"/>
    </contour>
    <contour>
      <point x="1664" y="1536" type="line"/>
      <point x="1792" y="1536" type="line"/>
      <point x="1792" y="1408" type="line"/>
      <point x="1664" y="1408" type="line"/>
    </contour>
    <contour>
      <point x="1792" y="1152" type="line"/>
      <point x="1664" y="1152" type="line"/>
      <point x="1664" y="1280" type="line"/>
      <point x="1792" y="1280" type="line"/>
    </contour>
    <contour>
      <point x="2048" y="962" type="line"/>
      <point x="2048" y="256" type="line" smooth="yes"/>
      <point x="2048" y="203"/>
      <point x="1954" y="128"/>
      <point x="1822" y="128"/>
      <point x="1728" y="203"/>
      <point x="1728" y="309"/>
      <point x="1822" y="384"/>
      <point x="1888" y="384" type="qcurve" smooth="yes"/>
      <point x="1902" y="384"/>
      <point x="1920" y="381" type="qcurve"/>
      <point x="1920" y="798" type="line"/>
      <point x="1536" y="702" type="line"/>
      <point x="1536" y="128" type="line" smooth="yes"/>
      <point x="1536" y="75"/>
      <point x="1438" y="0"/>
      <point x="1298" y="0"/>
      <point x="1200" y="75"/>
      <point x="1200" y="181"/>
      <point x="1298" y="256"/>
      <point x="1368" y="256" type="qcurve" smooth="yes"/>
      <point x="1387" y="256"/>
      <point x="1408" y="252" type="qcurve"/>
      <point x="1408" y="802" type="line"/>
    </contour>
  </outline>
</glyph>
<glyph name="uF010E" format="2">
  <advance width="2048"/>
  <unicode hex="F010E"/>
  <outline>
    <contour>
      <point x="0" y="1792" type="line"/>
      <point x="2048" y="1792" type="line"/>
      <point x="2048" y="256" type="line"/>
      <point x="1024" y="256" type="line"/>
      <point x="1024" y="384" type="line"/>
      <point x="1189" y="384" type="line"/>
      <point x="1024" y="549" type="line"/>
      <point x="1024" y="730" type="line"/>
      <point x="1152" y="602" type="line"/>
      <point x="1344" y="794" type="line"/>
      <point x="1754" y="384" type="line"/>
      <point x="1920" y="384" type="line"/>
      <point x="1920" y="1664" type="line"/>
      <point x="128" y="1664" type="line"/>
      <point x="128" y="418" type="line"/>
      <point x="46" y="390"/>
      <point x="0" y="360" type="qcurve"/>
    </contour>
    <contour>
      <point x="1344" y="613" type="line"/>
      <point x="1242" y="512" type="line"/>
      <point x="1370" y="384" type="line"/>
      <point x="1573" y="384" type="line"/>
    </contour>
    <contour>
      <point x="256" y="1536" type="line"/>
      <point x="384" y="1536" type="line"/>
      <point x="384" y="1408" type="line"/>
      <point x="256" y="1408" type="line"/>
    </contour>
    <contour>
      <point x="1152" y="987"/>
      <point x="1189" y="1024"/>
      <point x="1243" y="1024"/>
      <point x="1280" y="987"/>
      <point x="1280" y="933"/>
      <point x="1243" y="896"/>
      <point x="1189" y="896"/>
      <point x="1152" y="933"/>
    </contour>
    <contour>
      <point x="384" y="1152" type="line"/>
      <point x="256" y="1152" type="line"/>
      <point x="256" y="1280" type="line"/>
      <point x="384" y="1280" type="line"/>
    </contour>
    <contour>
      <point x="1792" y="1536" type="line"/>
      <point x="1792" y="1408" type="line"/>
      <point x="1664" y="1408" type="line"/>
      <point x="1664" y="1536" type="line"/>
    </contour>
    <contour>
      <point x="1792" y="1152" type="line"/>
      <point x="1664" y="1152" type="line"/>
      <point x="1664" y="1280" type="line"/>
      <point x="1792" y="1280" type="line"/>
    </contour>
    <contour>
      <point x="1792" y="1024" type="line"/>
      <point x="1792" y="896" type="line"/>
      <point x="1664" y="896" type="line"/>
      <point x="1664" y="1024" type="line"/>
    </contour>
    <contour>
      <point x="1792" y="640" type="line"/>
      <point x="1664" y="640" type="line"/>
      <point x="1664" y="768" type="line"/>
      <point x="1792" y="768" type="line"/>
    </contour>
    <contour>
      <point x="256" y="802" type="line"/>
      <point x="896" y="962" type="line"/>
      <point x="896" y="256" type="line" smooth="yes"/>
      <point x="896" y="203"/>
      <point x="802" y="128"/>
      <point x="670" y="128"/>
      <point x="576" y="203"/>
      <point x="576" y="309"/>
      <point x="670" y="384"/>
      <point x="736" y="384" type="qcurve" smooth="yes"/>
      <point x="750" y="384"/>
      <point x="768" y="381" type="qcurve"/>
      <point x="768" y="798" type="line"/>
      <point x="384" y="702" type="line"/>
      <point x="384" y="128" type="line" smooth="yes"/>
      <point x="384" y="75"/>
      <point x="286" y="0"/>
      <point x="146" y="0"/>
      <point x="48" y="75"/>
      <point x="48" y="181"/>
      <point x="146" y="256"/>
      <point x="216" y="256" type="qcurve" smooth="yes"/>
      <point x="234" y="256"/>
      <point x="256" y="252" type="qcurve"/>
    </contour>
  </outline>
</glyph>
<glyph name="uF0127" format="2">
  <advance width="2048"/>
  <unicode hex="F0127"/>
  <outline>
    <contour>
      <point x="1852" y="512" type="qcurve"/>
      <point x="1762" y="602" type="line"/>
      <point x="1920" y="783"/>
      <point x="1920" y="1024" type="qcurve" smooth="yes"/>
      <point x="1920" y="1153"/>
      <point x="1819" y="1390"/>
      <point x="1650" y="1562"/>
      <point x="1415" y="1664"/>
      <point x="1286" y="1664" type="qcurve" smooth="yes"/>
      <point x="881" y="1664" type="line"/>
      <point x="1043" y="1502" type="line"/>
      <point x="952" y="1411" type="line"/>
      <point x="635" y="1728" type="line"/>
      <point x="952" y="2045" type="line"/>
      <point x="1043" y="1954" type="line"/>
      <point x="881" y="1792" type="line"/>
      <point x="1286" y="1792" type="line" smooth="yes"/>
      <point x="1441" y="1792"/>
      <point x="1724" y="1669"/>
      <point x="1927" y="1463"/>
      <point x="2048" y="1179"/>
      <point x="2048" y="1024" type="qcurve" smooth="yes"/>
      <point x="2048" y="880"/>
      <point x="1945" y="617"/>
    </contour>
    <contour>
      <point x="184" y="1523" type="qcurve"/>
      <point x="275" y="1432" type="line"/>
      <point x="128" y="1254"/>
      <point x="128" y="1024" type="qcurve" smooth="yes"/>
      <point x="128" y="895"/>
      <point x="229" y="658"/>
      <point x="398" y="486"/>
      <point x="633" y="384"/>
      <point x="762" y="384" type="qcurve" smooth="yes"/>
      <point x="1412" y="384" type="line"/>
      <point x="1250" y="546" type="line"/>
      <point x="1330" y="626" type="line"/>
      <point x="18" y="1938" type="line"/>
      <point x="109" y="2029" type="line"/>
      <point x="2029" y="109" type="line"/>
      <point x="1938" y="18" type="line"/>
      <point x="1647" y="309" type="line"/>
      <point x="1341" y="3" type="line"/>
      <point x="1250" y="94" type="line"/>
      <point x="1412" y="256" type="line"/>
      <point x="762" y="256" type="line" smooth="yes"/>
      <point x="607" y="256"/>
      <point x="324" y="379"/>
      <point x="121" y="585"/>
      <point x="0" y="869"/>
      <point x="0" y="1024" type="qcurve" smooth="yes"/>
      <point x="0" y="1306"/>
    </contour>
  </outline>
</glyph>
<glyph name="uF0131" format="2">
  <advance width="2048"/>
  <unicode hex="F0131"/>
  <outline>
    <contour>
      <point x="1280" y="768" type="line"/>
      <point x="1152" y="768" type="line"/>
      <point x="1152" y="896" type="line"/>
      <point x="1280" y="896" type="line"/>
    </contour>
    <contour>
      <point x="1536" y="768" type="line"/>
      <point x="1408" y="768" type="line"/>
      <point x="1408" y="896" type="line"/>
      <point x="1536" y="896" type="line"/>
    </contour>
    <contour>
      <point x="1792" y="768" type="line"/>
      <point x="1664" y="768" type="line"/>
      <point x="1664" y="896" type="line"/>
      <point x="1792" y="896" type="line"/>
    </contour>
    <contour>
      <point x="1152" y="1152" type="line"/>
      <point x="1664" y="1152" type="line"/>
      <point x="1664" y="1024" type="line"/>
      <point x="1152" y="1024" type="line"/>
    </contour>
    <contour>
      <point x="1152" y="1408" type="line"/>
      <point x="1792" y="1408" type="line"/>
      <point x="1792" y="1280" type="line"/>
      <point x="1152" y="1280" type="line"/>
    </contour>
    <contour>
      <point x="0" y="1536" type="line" smooth="yes"/>
      <point x="0" y="1589"/>
      <point x="75" y="1664"/>
      <point x="128" y="1664" type="qcurve" smooth="yes"/>
      <point x="1920" y="1664" type="line" smooth="yes"/>
      <point x="1973" y="1664"/>
      <point x="2048" y="1589"/>
      <point x="2048" y="1536" type="qcurve" smooth="yes"/>
      <point x="2048" y="640" type="line" smooth="yes"/>
      <point x="2048" y="587"/>
      <point x="1973" y="512"/>
      <point x="1920" y="512" type="qcurve" smooth="yes"/>
      <point x="128" y="512" type="line" smooth="yes"/>
      <point x="75" y="512"/>
      <point x="0" y="587"/>
      <point x="0" y="640" type="qcurve" smooth="yes"/>
    </contour>
    <contour>
      <point x="128" y="640" type="line"/>
      <point x="896" y="640" type="line"/>
      <point x="896" y="1536" type="line"/>
      <point x="128" y="1536" type="line"/>
    </contour>
    <contour>
      <point x="1024" y="640" type="line"/>
      <point x="1920" y="640" type="line"/>
      <point x="1920" y="1536" type="line"/>
      <point x="1024" y="1536" type="line"/>
    </contour>
  </outline>
</glyph>
